<svg id="Capa_1" data-name="Capa 1" xmlns="http://www.w3.org/2000/svg" viewBox="0 0 302.4 271.31">
  <defs>
    <style>
      .cls-1 {
        fill: #d9ac80;
      }

      .cls-2 {
        fill: #d7baa4;
      }

      .cls-3 {
        fill: #a67e4f;
      }

      .cls-4 {
        fill: #926e43;
      }

      .cls-5 {
        fill: #f2d3ba;
      }
    </style>
  </defs>
  <g>
    <polygon class="cls-1" points="75.6 116.32 113.32 135.73 151.2 154.99 113.32 174.4 75.6 193.81 37.88 174.4 0 154.99 37.88 135.73 75.6 116.32"/>
    <polygon class="cls-2" points="122.79 187.19 122.79 169.67 103.85 179.29 103.85 196.81 114.27 184.03 122.79 187.19"/>
    <polygon class="cls-3" points="75.6 193.81 75.6 271.31 151.2 232.64 151.2 154.99 122.79 169.67 122.16 169.98 122.16 187.03 114.27 184.03 103.85 196.81 103.85 179.29 75.6 193.81"/>
    <polygon class="cls-4" points="75.6 271.31 75.6 193.81 37.88 174.4 0 154.99 0 232.64 75.6 271.31"/>
    <polygon class="cls-5" points="28.41 140.47 103.85 179.29 122.16 169.98 122.79 169.67 47.35 130.84 37.88 135.73 28.41 140.47"/>
  </g>
  <g>
    <polygon class="cls-1" points="226.8 116.32 264.52 135.73 302.4 154.99 264.52 174.4 226.8 193.81 189.08 174.4 151.2 154.99 189.08 135.73 226.8 116.32"/>
    <polygon class="cls-2" points="273.99 187.19 273.99 169.67 255.05 179.29 255.05 196.81 265.47 184.03 273.99 187.19"/>
    <polygon class="cls-3" points="226.8 193.81 226.8 271.31 302.4 232.64 302.4 154.99 273.99 169.67 273.36 169.98 273.36 187.03 265.47 184.03 255.05 196.81 255.05 179.29 226.8 193.81"/>
    <polygon class="cls-4" points="226.8 271.31 226.8 193.81 189.08 174.4 151.2 154.99 151.2 232.64 226.8 271.31"/>
    <polygon class="cls-5" points="179.61 140.47 255.05 179.29 273.36 169.98 273.99 169.67 198.55 130.84 189.08 135.73 179.61 140.47"/>
  </g>
  <g>
    <polygon class="cls-1" points="151.2 0 188.92 19.41 226.8 38.67 188.92 58.08 151.2 77.49 113.48 58.08 75.6 38.67 113.48 19.41 151.2 0"/>
    <polygon class="cls-2" points="198.39 70.86 198.39 53.35 179.45 62.97 179.45 80.49 189.87 67.71 198.39 70.86"/>
    <polygon class="cls-3" points="151.2 77.49 151.2 154.99 226.8 116.32 226.8 38.67 198.39 53.35 197.76 53.66 197.76 70.71 189.87 67.71 179.45 80.49 179.45 62.97 151.2 77.49"/>
    <polygon class="cls-4" points="151.2 154.99 151.2 77.49 113.48 58.08 75.6 38.67 75.6 116.32 151.2 154.99"/>
    <polygon class="cls-5" points="104.01 24.15 179.45 62.97 197.76 53.66 198.39 53.35 122.95 14.52 113.48 19.41 104.01 24.15"/>
  </g>
</svg>
