<svg id="Layer_1" data-name="Layer 1" xmlns="http://www.w3.org/2000/svg" viewBox="0 0 26.727 30.493"><defs><style>.cls-1{fill:none;stroke:#adb5c7;stroke-miterlimit:10;stroke-width:1.2px;}</style></defs><ellipse class="cls-1" cx="9.003" cy="3.054" rx="8.403" ry="2.454"/><line class="cls-1" x1="17.486" y1="13.179" x2="17.486" y2="3.054"/><path class="cls-1" d="M.6,3.054V25.1H.646c.125,1.324,3.835,2.386,8.4,2.386"/><path class="cls-1" d="M9.043,16.162c-4.641,0-8.4-1.1-8.4-2.454"/><path class="cls-1" d="M17.445,8.353c0,1.356-3.762,2.454-8.4,2.454S.64,9.709.64,8.353"/><path class="cls-1" d="M9.043,21.513c-4.641,0-8.4-1.1-8.4-2.454"/><path class="cls-1" d="M9.241,16.072V27.508h.046c.125,1.323,3.835,2.385,8.4,2.385s8.271-1.062,8.4-2.385h.047V16.072"/><path class="cls-1" d="M26.086,21.471c0,1.355-3.762,2.454-8.4,2.454s-8.4-1.1-8.4-2.454"/><ellipse class="cls-1" cx="17.643" cy="16.072" rx="8.403" ry="2.454"/></svg>