<?xml version="1.0" encoding="UTF-8"?>
<svg id="Layer_1" data-name="Layer 1" xmlns="http://www.w3.org/2000/svg" viewBox="0 0 326.06 361.28">
  <defs>
    <style>
      .cls-1 {
        fill: #ffdc80;
      }

      .cls-2 {
        fill: #f2b155;
      }

      .cls-3 {
        fill: #f2b255;
      }

      .cls-4 {
        fill: #ffc066;
      }

      .cls-5 {
        fill: #e6a951;
      }
    </style>
  </defs>
  <path class="cls-4" d="M325.95,310.22c0,20.71-43.1,37-96.12,37s-95.88-16.29-95.88-37v-41.5h192v41.5h0Z"/>
  <g>
    <path class="cls-2" d="M326.06,268.72c0,20.71-43.1,38.5-96.12,38.5s-95.88-17.79-95.88-38.5,42.98-37.5,96-37.5,96,16.79,96,37.5Z"/>
    <path class="cls-2" d="M293.95,305.55c-2.59,.88-5.25,1.7-8,2.46v24.02c2.82-.83,5.52-1.7,8-2.62v-23.86Z"/>
    <path class="cls-2" d="M269.95,311.65c-2.64,.48-5.3,.92-8,1.31v24.09c2.76-.39,5.42-.8,8-1.28v-24.12Z"/>
    <path class="cls-2" d="M237.95,339.06c2.74-.08,5.38-.23,8-.4v-24.02c-2.66,.19-5.33,.33-8,.42v24Z"/>
    <path class="cls-2" d="M197.95,312.95c-2.7-.39-5.37-.84-8-1.32v24.17c2.58,.47,5.25,.9,8,1.28v-24.13Z"/>
    <path class="cls-2" d="M149.95,321.27v-22.52c-2.88-1.52-5.56-3.14-8-4.84v16.31c0,3.47,2.82,7.32,8,11.06Z"/>
    <path class="cls-2" d="M165.95,329.43c2.48,.92,5.17,1.79,8,2.62v-24.08c-2.75-.76-5.42-1.59-8-2.48v23.94Z"/>
    <path class="cls-2" d="M309.95,321.26c5.18-3.74,8-7.58,8-11.04v-16.17c-2.44,1.7-5.12,3.29-8,4.8v22.42Z"/>
    <path class="cls-2" d="M221.95,315.06c-2.67-.09-5.34-.24-8-.42v24.04c2.61,.17,5.26,.3,8,.39v-24.01Z"/>
  </g>
  <path class="cls-4" d="M317.95,262.37c0,20.71-43.1,37-96.12,37s-95.88-16.29-95.88-37v-41.5h192v41.5h0Z"/>
  <g>
    <path class="cls-2" d="M318.06,220.87c0,20.71-43.1,38.5-96.12,38.5s-95.88-17.79-95.88-38.5,42.98-37.5,96-37.5,96,16.79,96,37.5Z"/>
    <path class="cls-2" d="M285.95,257.69c-2.59,.88-5.25,1.7-8,2.46v24.02c2.82-.83,5.52-1.7,8-2.61v-23.87Z"/>
    <path class="cls-2" d="M261.95,263.79c-2.64,.48-5.3,.93-8,1.32v24.1c2.76-.39,5.42-.81,8-1.28v-24.13Z"/>
    <path class="cls-2" d="M229.95,291.21c2.74-.08,5.38-.23,8-.4v-24.03c-2.66,.18-5.33,.33-8,.42v24Z"/>
    <path class="cls-2" d="M189.95,265.09c-2.7-.39-5.37-.84-8-1.32v24.17c2.58,.47,5.25,.9,8,1.27v-24.12Z"/>
    <path class="cls-2" d="M141.95,273.42v-22.53c-2.88-1.52-5.56-3.13-8-4.84v16.32c0,3.46,2.82,7.32,8,11.06Z"/>
    <path class="cls-2" d="M157.95,281.57c2.48,.92,5.17,1.79,8,2.62v-24.08c-2.75-.77-5.42-1.6-8-2.48v23.94h0Z"/>
    <path class="cls-2" d="M301.95,273.4c5.18-3.74,8-7.58,8-11.04v-16.17c-2.44,1.69-5.12,3.28-8,4.79v22.42Z"/>
    <path class="cls-2" d="M213.95,267.21c-2.67-.09-5.34-.24-8-.42v24.05c2.61,.16,5.26,.3,8,.39v-24.01Z"/>
  </g>
  <path class="cls-4" d="M325.95,214.53c0,20.71-43.1,37-96.12,37s-95.88-16.29-95.88-37v-41.5h192v41.5h0Z"/>
  <g>
    <path class="cls-2" d="M326.06,173.03c0,20.71-43.1,38.5-96.12,38.5s-95.88-17.79-95.88-38.5,42.98-37.5,96-37.5,96,16.79,96,37.5Z"/>
    <path class="cls-2" d="M293.95,209.85c-2.59,.88-5.25,1.7-8,2.46v24.02c2.82-.83,5.52-1.7,8-2.61v-23.87Z"/>
    <path class="cls-2" d="M269.95,215.95c-2.64,.48-5.3,.93-8,1.32v24.1c2.76-.39,5.42-.81,8-1.28v-24.13Z"/>
    <path class="cls-2" d="M237.95,243.38c2.74-.08,5.38-.23,8-.4v-24.03c-2.66,.18-5.33,.33-8,.42v24Z"/>
    <path class="cls-2" d="M197.95,217.26c-2.7-.39-5.37-.84-8-1.32v24.17c2.58,.47,5.25,.9,8,1.27v-24.12Z"/>
    <path class="cls-2" d="M149.95,225.58v-22.53c-2.88-1.52-5.56-3.13-8-4.84v16.32c0,3.46,2.82,7.32,8,11.06Z"/>
    <path class="cls-2" d="M165.95,233.73c2.48,.92,5.17,1.79,8,2.62v-24.08c-2.75-.77-5.42-1.6-8-2.48v23.94Z"/>
    <path class="cls-2" d="M309.95,225.57c5.18-3.74,8-7.58,8-11.04v-16.17c-2.44,1.7-5.12,3.29-8,4.8v22.41Z"/>
    <path class="cls-2" d="M221.95,219.38c-2.67-.09-5.34-.24-8-.42v24.05c2.61,.16,5.26,.3,8,.39v-24.01Z"/>
  </g>
  <path class="cls-4" d="M325.95,166.7c0,20.71-43.1,37-96.12,37s-95.88-16.29-95.88-37v-41.5h192v41.5h0Z"/>
  <g>
    <path class="cls-2" d="M326.06,125.2c0,20.71-43.1,38.5-96.12,38.5s-95.88-17.79-95.88-38.5,42.98-37.5,96-37.5,96,16.79,96,37.5Z"/>
    <path class="cls-2" d="M293.95,162.02c-2.59,.88-5.25,1.7-8,2.46v24.02c2.82-.83,5.52-1.7,8-2.61v-23.87Z"/>
    <path class="cls-2" d="M269.95,168.12c-2.64,.48-5.3,.93-8,1.32v24.1c2.76-.39,5.42-.81,8-1.28v-24.13Z"/>
    <path class="cls-2" d="M237.95,195.54c2.74-.08,5.38-.23,8-.4v-24.03c-2.66,.18-5.33,.33-8,.42v24Z"/>
    <path class="cls-2" d="M197.95,169.42c-2.7-.39-5.37-.84-8-1.32v24.17c2.58,.47,5.25,.9,8,1.27v-24.12Z"/>
    <path class="cls-2" d="M149.95,177.75v-22.53c-2.88-1.52-5.56-3.13-8-4.84v16.32c0,3.46,2.82,7.31,8,11.05Z"/>
    <path class="cls-2" d="M165.95,185.9c2.48,.92,5.17,1.79,8,2.62v-24.08c-2.75-.77-5.42-1.6-8-2.48v23.94Z"/>
    <path class="cls-2" d="M309.95,177.73c5.18-3.74,8-7.58,8-11.04v-16.17c-2.44,1.69-5.12,3.29-8,4.8v22.41Z"/>
    <path class="cls-2" d="M221.95,171.54c-2.67-.09-5.34-.24-8-.43v24.05c2.61,.16,5.26,.3,8,.39v-24.01Z"/>
  </g>
  <path class="cls-4" d="M313.95,120.85c0,20.71-43.1,37-96.12,37s-95.88-16.29-95.88-37v-41.5h192v41.5h0Z"/>
  <path class="cls-1" d="M314.06,79.35c0,20.71-43.1,38.5-96.12,38.5s-95.88-17.79-95.88-38.5,42.98-37.5,96-37.5c53.02,0,96,16.79,96,37.5Z"/>
  <path class="cls-3" d="M298.37,79.35c0,14.08-36.07,26.5-80.42,26.5s-80.19-12.42-80.19-26.5,35.95-25.5,80.3-25.5,80.3,11.42,80.3,25.5Z"/>
  <path class="cls-5" d="M141.95,83.35c0-14.08,35.95-25.5,80.3-25.5,33.01,0,61.34,6.33,73.68,15.37-8.66-11.12-40.19-19.37-77.87-19.37-44.35,0-80.3,11.42-80.3,25.5,0,3.66,2.45,7.19,6.8,10.43-1.64-2.08-2.61-4.23-2.61-6.43Z"/>
  <g>
    <path class="cls-2" d="M281.95,116.17c-2.59,.88-5.25,1.7-8,2.46v24.02c2.82-.83,5.52-1.7,8-2.62v-23.86Z"/>
    <path class="cls-2" d="M257.95,122.27c-2.64,.48-5.3,.93-8,1.32v24.1c2.76-.39,5.42-.81,8-1.28v-24.13Z"/>
    <path class="cls-2" d="M225.95,149.69c2.74-.08,5.38-.23,8-.4v-24.03c-2.66,.19-5.33,.33-8,.42v24.01Z"/>
    <path class="cls-2" d="M185.95,123.57c-2.7-.39-5.37-.84-8-1.32v24.17c2.58,.47,5.25,.9,8,1.28v-24.13Z"/>
    <path class="cls-2" d="M137.95,131.9v-22.52c-2.88-1.52-5.56-3.14-8-4.84v16.32c0,3.46,2.82,7.32,8,11.05Z"/>
    <path class="cls-2" d="M153.95,140.06c2.48,.92,5.17,1.79,8,2.62v-24.08c-2.75-.77-5.42-1.6-8-2.48v23.94Z"/>
    <path class="cls-2" d="M297.95,131.88c5.18-3.74,8-7.58,8-11.04v-16.17c-2.44,1.69-5.12,3.29-8,4.8v22.41Z"/>
    <path class="cls-2" d="M209.95,125.69c-2.67-.09-5.34-.24-8-.42v24.04c2.61,.17,5.26,.3,8,.39v-24.01Z"/>
  </g>
  <path class="cls-4" d="M325.95,79c0,20.71-43.1,37-96.12,37s-95.88-16.29-95.88-37V37.5h192v41.5h0Z"/>
  <path class="cls-1" d="M326.06,37.5c0,20.71-43.1,38.5-96.12,38.5s-95.88-17.79-95.88-38.5S177.04,0,230.06,0s96,16.79,96,37.5Z"/>
  <path class="cls-4" d="M310.37,37.5c0,14.08-36.07,26.5-80.42,26.5s-80.19-12.42-80.19-26.5,35.95-25.5,80.3-25.5,80.3,11.42,80.3,25.5Z"/>
  <g>
    <path class="cls-2" d="M153.95,41.5c0-14.08,35.95-25.5,80.3-25.5,33.01,0,61.34,6.33,73.68,15.37-8.66-11.12-40.19-19.37-77.87-19.37-44.35,0-80.3,11.42-80.3,25.5,0,3.66,2.45,7.19,6.8,10.43-1.64-2.08-2.61-4.23-2.61-6.43Z"/>
    <path class="cls-2" d="M293.95,74.32c-2.59,.88-5.25,1.7-8,2.46v24.02c2.82-.83,5.52-1.7,8-2.62v-23.86Z"/>
    <path class="cls-2" d="M269.95,80.42c-2.64,.48-5.3,.93-8,1.32v24.1c2.76-.38,5.42-.81,8-1.28v-24.13Z"/>
    <path class="cls-2" d="M237.95,107.84c2.74-.08,5.38-.23,8-.4v-24.03c-2.66,.18-5.33,.33-8,.42v24Z"/>
    <path class="cls-2" d="M197.95,81.72c-2.7-.39-5.37-.84-8-1.32v24.17c2.58,.47,5.25,.9,8,1.28v-24.13Z"/>
    <path class="cls-2" d="M149.95,90.05v-22.53c-2.88-1.52-5.56-3.14-8-4.84v16.32c0,3.46,2.82,7.31,8,11.05Z"/>
    <path class="cls-2" d="M165.95,98.2c2.48,.92,5.17,1.79,8,2.62v-24.08c-2.75-.77-5.42-1.6-8-2.48v23.94Z"/>
    <path class="cls-2" d="M309.95,90.04c5.18-3.74,8-7.58,8-11.04v-16.17c-2.44,1.69-5.12,3.29-8,4.8v22.41Z"/>
    <path class="cls-2" d="M221.95,83.84c-2.67-.09-5.34-.24-8-.43v24.04c2.61,.17,5.26,.3,8,.39v-24Z"/>
    <path class="cls-2" d="M200.12,220.71v-23.77h-.12c0-16.62-27.7-30.72-66.05-35.63v5.39c0,1.17,.16,2.33,.42,3.47-.18,.95-.31,1.9-.31,2.87h-.12v32.94c-5.06,4.57-7.88,9.6-7.88,14.9h-.12v41.5c0,5.34,2.87,10.38,8,14.92v32.93c0,14.64,21.43,27.06,52.72,33.08,8.54-5.53,13.45-12.03,13.45-19.03v-25.94c7.64-5.32,12-11.46,12-18.06v-41.5h-.12c0-6.56-4.32-12.72-11.88-18.07Z"/>
  </g>
  <path class="cls-4" d="M.12,324.28c0,20.71,43.09,37,96.12,37s95.88-16.29,95.88-37v-41.5H.12v41.5h0Z"/>
  <path class="cls-1" d="M0,282.78c0,20.71,43.09,38.5,96.12,38.5s95.88-17.79,95.88-38.5-42.98-37.5-96-37.5S0,262.07,0,282.78Z"/>
  <path class="cls-3" d="M15.7,282.78c0,14.08,36.07,26.5,80.42,26.5s80.19-12.42,80.19-26.5-35.95-25.5-80.31-25.5-80.3,11.42-80.3,25.5Z"/>
  <path class="cls-5" d="M172.12,286.78c0-14.08-35.95-25.5-80.3-25.5-33.01,0-61.34,6.33-73.69,15.38,8.66-11.12,40.19-19.38,77.88-19.38,44.35,0,80.3,11.42,80.3,25.5,0,3.66-2.45,7.19-6.8,10.43,1.65-2.08,2.62-4.22,2.62-6.43Z"/>
  <path class="cls-4" d="M12.12,280.28c0,20.71,43.09,37,96.12,37s95.88-16.29,95.88-37v-41.5H12.12v41.5h0Z"/>
  <path class="cls-2" d="M12,238.78c0,20.71,43.09,38.5,96.12,38.5s95.88-17.79,95.88-38.5-42.98-37.5-96-37.5S12,218.07,12,238.78Z"/>
  <path class="cls-3" d="M27.7,238.78c0,14.08,36.07,26.5,80.42,26.5s80.19-12.42,80.19-26.5-35.95-25.5-80.31-25.5-80.3,11.42-80.3,25.5Z"/>
  <path class="cls-5" d="M184.12,242.78c0-14.08-35.95-25.5-80.3-25.5-33.01,0-61.34,6.33-73.69,15.38,8.66-11.12,40.19-19.38,77.88-19.38,44.35,0,80.3,11.42,80.3,25.5,0,3.66-2.45,7.19-6.8,10.43,1.65-2.08,2.62-4.22,2.62-6.43Z"/>
  <g>
    <path class="cls-2" d="M32.12,319.61c2.58,.88,5.25,1.7,8,2.46v24.02c-2.83-.83-5.53-1.7-8-2.62v-23.86Z"/>
    <path class="cls-2" d="M56.12,325.71c2.63,.48,5.3,.92,8,1.31v24.09c-2.76-.38-5.43-.8-8-1.28v-24.12Z"/>
    <path class="cls-2" d="M88.12,353.12c-2.74-.08-5.39-.23-8-.39v-24.03c2.66,.19,5.33,.33,8,.42v24.01Z"/>
    <path class="cls-2" d="M128.12,327.01c2.7-.38,5.36-.84,8-1.32v24.17c-2.58,.48-5.24,.9-8,1.28v-24.13Z"/>
    <path class="cls-2" d="M176.12,335.34v-22.52c2.88-1.52,5.56-3.14,8-4.84v16.31c0,3.47-2.82,7.32-8,11.06Z"/>
    <path class="cls-2" d="M160.12,343.49c-2.48,.92-5.18,1.79-8,2.62v-24.08c2.74-.76,5.41-1.59,8-2.48v23.94Z"/>
    <path class="cls-2" d="M16.12,335.32c-5.18-3.74-8-7.58-8-11.04v-16.17c2.44,1.7,5.12,3.3,8,4.8v22.42Z"/>
    <path class="cls-2" d="M104.12,329.12c2.67-.09,5.34-.24,8-.43v24.05c-2.62,.16-5.26,.3-8,.4v-24.02Z"/>
    <path class="cls-2" d="M44.12,275.61c2.58,.88,5.25,1.7,8,2.46v24.02c-2.83-.83-5.53-1.7-8-2.62v-23.86Z"/>
    <path class="cls-2" d="M68.12,281.71c2.63,.48,5.3,.92,8,1.31v24.09c-2.76-.38-5.43-.8-8-1.28v-24.12Z"/>
    <path class="cls-2" d="M100.12,309.12c-2.74-.08-5.39-.23-8-.39v-24.03c2.66,.19,5.33,.33,8,.42v24.01Z"/>
    <path class="cls-2" d="M140.12,283.01c2.7-.38,5.36-.84,8-1.32v24.17c-2.58,.48-5.24,.9-8,1.28v-24.13Z"/>
    <path class="cls-2" d="M188.12,291.34v-22.52c2.88-1.52,5.56-3.14,8-4.84v16.31c0,3.47-2.82,7.32-8,11.06Z"/>
    <path class="cls-2" d="M172.12,299.49c-2.48,.92-5.18,1.79-8,2.62v-24.08c2.74-.76,5.41-1.59,8-2.48v23.94Z"/>
    <path class="cls-2" d="M28.12,291.32c-5.18-3.74-8-7.58-8-11.04v-16.17c2.44,1.7,5.12,3.3,8,4.8v22.42Z"/>
    <path class="cls-2" d="M116.12,285.12c2.67-.09,5.34-.24,8-.43v24.05c-2.62,.16-5.26,.3-8,.4v-24.02Z"/>
  </g>
  <path class="cls-4" d="M.12,238.44c0,20.71,43.09,37,96.12,37s95.88-16.29,95.88-37v-41.5H.12v41.5h0Z"/>
  <path class="cls-1" d="M0,196.94c0,20.71,43.09,38.5,96.12,38.5s95.88-17.79,95.88-38.5-42.98-37.5-96-37.5c-53.02,0-96,16.79-96,37.5Z"/>
  <path class="cls-4" d="M15.7,196.94c0,14.08,36.07,26.5,80.42,26.5s80.19-12.42,80.19-26.5-35.95-25.5-80.31-25.5c-44.35,0-80.3,11.42-80.3,25.5Z"/>
  <g>
    <path class="cls-2" d="M27.7,196.94c0-13.44,32.76-24.42,74.3-25.4-1.99-.05-3.98-.1-6-.1-44.35,0-80.3,11.42-80.3,25.5s36.07,26.5,80.42,26.5c2.02,0,4.01-.06,6-.1-41.55-1.06-74.42-12.96-74.42-26.4Z"/>
    <path class="cls-2" d="M32.12,233.76c2.58,.88,5.25,1.7,8,2.46v24.02c-2.83-.83-5.53-1.7-8-2.62v-23.86Z"/>
    <path class="cls-2" d="M56.12,239.86c2.63,.48,5.3,.93,8,1.31v24.1c-2.76-.38-5.43-.81-8-1.28v-24.13Z"/>
    <path class="cls-2" d="M88.12,267.28c-2.74-.08-5.39-.23-8-.4v-24.04c2.66,.19,5.33,.34,8,.43v24.01Z"/>
    <path class="cls-2" d="M128.12,241.16c2.7-.39,5.36-.84,8-1.32v24.17c-2.58,.47-5.24,.89-8,1.27v-24.12Z"/>
    <path class="cls-2" d="M176.12,249.49v-22.53c2.88-1.52,5.56-3.13,8-4.84v16.32c0,3.46-2.82,7.31-8,11.06Z"/>
    <path class="cls-2" d="M160.12,257.64c-2.48,.92-5.18,1.79-8,2.62v-24.08c2.74-.77,5.41-1.6,8-2.48v23.94Z"/>
    <path class="cls-2" d="M16.12,249.48c-5.18-3.74-8-7.58-8-11.04v-16.17c2.44,1.69,5.12,3.29,8,4.8v22.42Z"/>
    <path class="cls-2" d="M104.12,243.28c2.67-.09,5.34-.24,8-.43v24.05c-2.62,.16-5.26,.3-8,.39v-24.01Z"/>
  </g>
</svg>