<?xml version="1.0" encoding="iso-8859-1"?>
<!-- Generator: Adobe Illustrator 18.0.0, SVG Export Plug-In . SVG Version: 6.00 Build 0)  -->
<!DOCTYPE svg PUBLIC "-//W3C//DTD SVG 1.1//EN" "http://www.w3.org/Graphics/SVG/1.1/DTD/svg11.dtd">
<svg version="1.1" id="Capa_1" xmlns="http://www.w3.org/2000/svg" xmlns:xlink="http://www.w3.org/1999/xlink" x="0px" y="0px"
	 viewBox="0 0 297 297" style="enable-background:new 0 0 297 297;" xml:space="preserve">
<path fill="#adb5c7" d="M149.067,112.024c3.292-1.635,6.259-3.794,8.839-6.361c6.131,6.104,14.579,9.883,23.893,9.883
	c6.077,0,11.781-1.616,16.718-4.43c5.234,11.968,17.182,20.356,31.058,20.356c4.949,0,9.649-1.075,13.892-2.991v36.507
	c0,14.401-11.716,26.118-26.117,26.118h-11.663c-5.521,0-9.997,4.476-9.997,9.997v85.901c0,5.521,4.476,9.997,9.997,9.997
	s9.997-4.476,9.997-9.997v-75.904h1.666c25.425,0,46.11-20.685,46.11-46.111V42.25c0-14.515-11.808-26.325-26.324-26.325h-15.122
	c-2.78,0-5.46,0.436-7.977,1.239C210.309,7.152,200.655,0,189.36,0h-15.122c-6.165,0-11.836,2.135-16.327,5.698
	C153.42,2.135,147.748,0,141.583,0h-15.122c-6.165,0-11.837,2.136-16.328,5.698C105.643,2.136,99.971,0,93.806,0H78.685
	C64.17,0,52.361,11.808,52.361,26.324v54.399c-10.87,3.239-18.821,13.32-18.821,25.228v15.122c0,10.061,5.675,18.817,13.99,23.246
	c0,0,3.212,14.494,4.282,19.325c5.391,24.326,24.711,42.576,48.326,46.615v76.745c0,5.521,4.476,9.997,9.997,9.997
	c5.521,0,9.997-4.476,9.997-9.997v-85.901c0-5.521-4.476-9.997-9.997-9.997c-0.492,0-0.983-0.009-1.473-0.026
	c-17.975-0.635-33.327-13.695-37.331-31.761c-0.661-2.98-2.642-11.922-2.642-11.922h46.512c9.795,0,18.628-4.182,24.82-10.849
	c4.815,4.01,7.894,10.036,7.894,16.778v31.851c0,5.521,4.476,9.997,9.997,9.997s9.997-4.476,9.997-9.997v-31.851
	c0-14.713-7.639-27.666-19.153-35.128C148.967,116.665,149.067,113.614,149.067,112.024z M78.685,19.993h15.121
	c3.491,0,6.332,2.84,6.332,6.331v53.304H72.354V26.324C72.354,22.833,75.194,19.993,78.685,19.993z M115.201,127.404H59.864
	c-3.491,0-6.331-2.84-6.331-6.331v-15.122c0-3.491,2.84-6.331,6.331-6.331h55.337c7.659,0,13.892,6.232,13.892,13.892
	S122.86,127.404,115.201,127.404z M120.131,79.99V26.324c0-3.491,2.84-6.331,6.331-6.331h15.122c3.491,0,6.331,2.84,6.331,6.331
	v55.337c0,4.646-2.301,8.756-5.814,11.279C136.85,86.091,129.051,81.296,120.131,79.99z M181.799,95.553
	c-7.659,0-13.892-6.232-13.892-13.892V26.324c0-3.491,2.84-6.331,6.331-6.331h15.122c3.491,0,6.331,2.84,6.331,6.331v55.337
	C195.691,89.32,189.458,95.553,181.799,95.553z M229.575,111.479c-7.659,0-13.892-6.232-13.892-13.892V42.25
	c0-3.491,2.84-6.332,6.331-6.332h15.122c3.491,0,6.331,2.841,6.331,6.332v55.337C243.467,105.247,237.235,111.479,229.575,111.479z"
	/>
</svg>
