<svg id="Layer_1" data-name="Layer 1" xmlns="http://www.w3.org/2000/svg" viewBox="0 0 25.933 35.317"><defs><style>.cls-1{fill:none;stroke:#adb5c7;stroke-miterlimit:10;stroke-width:1.2px;}</style></defs><rect class="cls-1" x="17.196" y="12.296" width="8.964" height="5.009" rx="2.504" transform="translate(-2.967 23.834) rotate(-54.453)"/><rect class="cls-1" x="11.861" y="8.955" width="12.362" height="4.788" rx="2.394" transform="translate(-1.681 19.43) rotate(-54.453)"/><path class="cls-1" d="M11.389,8.231l4.069-5.695A2.394,2.394,0,0,1,18.8,1.98h0a2.4,2.4,0,0,1,.556,3.34l-4.4,6.162a2.39,2.39,0,0,1-2,1"/><path class="cls-1" d="M7.216,5.861,10.259,1.6A2.4,2.4,0,0,1,13.6,1.046h0a2.394,2.394,0,0,1,.556,3.34L11.389,8.231"/><path class="cls-1" d="M19.2,35.12v-8.8A15.176,15.176,0,0,0,20.872,23.9c1.169-1.919,1.887-6.169,1.887-6.169"/><path class="cls-1" d="M13.353,22.387a6.839,6.839,0,0,0-1.178-4.453c-1.441-2.357-6.659-4.8-6.659-4.8l.671-1.565,3.241,1.871a2.577,2.577,0,0,0,3.519-.943l.171-.3a2.575,2.575,0,0,0-.943-3.518L7.68,6.085A3.578,3.578,0,0,0,2.791,7.4L1.833,9.053l-.762,2.04a7.44,7.44,0,0,0,.53,6.333l5,8.642L4.848,35.2"/></svg>