<svg id="Layer_1" data-name="Layer 1" xmlns="http://www.w3.org/2000/svg" viewBox="0 0 22.442 21.497"><defs><style>.cls-1{fill:#fff;fill-rule:evenodd;}</style></defs><path class="cls-1" d="M22.366,8.1a1.55,1.55,0,0,0-1.477-1.072h-6a.35.35,0,0,1-.333-.242L12.7,1.073a1.552,1.552,0,0,0-2.952,0L7.89,6.783a.35.35,0,0,1-.333.242h-6A1.554,1.554,0,0,0,.64,9.835L5.5,13.363a.351.351,0,0,1,.127.391L3.769,19.463A1.553,1.553,0,0,0,6.159,21.2l4.856-3.529a.35.35,0,0,1,.411,0l4.858,3.53a1.553,1.553,0,0,0,2.389-1.738l-1.855-5.709a.35.35,0,0,1,.127-.391L21.8,9.835A1.554,1.554,0,0,0,22.366,8.1Z"/></svg>