<?xml version="1.0" encoding="UTF-8"?>
<svg id="Layer_1" data-name="Layer 1" xmlns="http://www.w3.org/2000/svg" viewBox="0 0 52 120.8">
  <defs>
    <style>
      .cls-1 {
        fill: #e6e6e5;
      }

      .cls-2 {
        fill: #ffd465;
      }

      .cls-3 {
        fill: #fcb766;
      }

      .cls-4 {
        fill: #b4b4b4;
      }

      .cls-5 {
        fill: #cdcccc;
      }

      .cls-6 {
        fill: #cd584c;
      }
    </style>
  </defs>
  <path class="cls-1" d="M20.8,120.3c1.7,.1,3.5,.5,5.2,.5,1.8,0,3.5-.5,5.2-.6l3.8-39.2H17l3.8,39.3Z"/>
  <path class="cls-5" d="M28.2,120.4c1,0,2-.3,3-.4l3.8-39h-3l-3.8,39.4Z"/>
  <path class="cls-5" d="M42,70c-.8,7-7.6,14-16,14s-15.3-7-16-14H42Z"/>
  <path class="cls-4" d="M39,70c-.7,7-6.8,13.6-14.5,14.4,.5,0,1-.2,1.5-.2,8.4,0,15.2-7.2,16-14.2h-3Z"/>
  <path class="cls-1" d="M52,52c0,13-11.9,24-26,24S0,65,0,52H52Z"/>
  <path class="cls-5" d="M49,51c0,13-11.1,23.7-24.5,24.4,.5,0,1-.2,1.5-.2,14.1,0,26-11.2,26-24.2h-3Z"/>
  <path class="cls-2" d="M6,30.5c0,11.3,9,19.5,20,19.5s20-8.2,20-19.5c0-15.5-24-14.5-18-30.5-6,5-9,12-5,20-4-2-8-6-8-10-2,4-3,13,0,15-3,0-7-6-6-9-2,3-3,11-3,14.5Z"/>
  <path class="cls-3" d="M13,36c0,7.2,5.8,12,13,12s13-5.8,13-13c0-9-5-13-12-19,4,17-14,10-14,20Z"/>
  <path class="cls-6" d="M26,46c-3.5,0-7-1.8-7-5.9,0-6.1,10-4.1,11-12.1,2,1,4,7,4,10,0,5-4.1,8-8,8Z"/>
</svg>